<svg xmlns="http://www.w3.org/2000/svg" id="Layer_1" data-name="Layer 1" viewBox="0 0 176.56 135.34"><defs><style>.cls-1{fill:#4c6198;}.cls-2{fill:#2e4976;}.cls-3{fill:#00a096;}.cls-4{fill:#058679;}.cls-5{fill:#88be47;}.cls-6{fill:#8e5196;}.cls-7{fill:#74387e;}.cls-8{fill:#e16136;}.cls-9{fill:#c24727;}.cls-10{fill:#f3be33;}</style></defs><path class="cls-1" d="M125,154.77c-21.86-21.85-24.44-56.86-24.44-56.86s36.89,4.46,56.86,24.43c11.81,11.82,14.12,28.65,5.17,37.6S136.78,166.58,125,154.77Z" transform="translate(-11.72 -30.05)"></path><path class="cls-2" d="M100.52,98s17.74,25.63,60.83,29a57.38,57.38,0,0,0-7.67-8.36Z" transform="translate(-11.72 -30.05)"></path><path class="cls-3" d="M158,120.87c-30.9,0-57.48-22.93-57.48-22.93S129.8,75,158,75c16.7,0,30.24,10.27,30.24,22.93S174.74,120.87,158,120.87Z" transform="translate(-11.72 -30.05)"></path><path class="cls-4" d="M100.52,98s33.6,3.57,65.48-22.11c0,0-3.12-1.2-14-.82Z" transform="translate(-11.72 -30.05)"></path><path class="cls-5" d="M157.38,73.53C135.53,95.38,100.52,98,100.52,98S105,61.08,125,41.11C136.76,29.3,153.6,27,162.55,35.94S169.19,61.72,157.38,73.53Z" transform="translate(-11.72 -30.05)"></path><path class="cls-6" d="M75,154.33c21.86-21.85,24.44-56.86,24.44-56.86s-36.89,4.47-56.86,24.44c-11.81,11.81-14.12,28.64-5.17,37.59S63.21,166.14,75,154.33Z" transform="translate(-11.72 -30.05)"></path><path class="cls-7" d="M99.48,97.53s-17.74,25.64-60.83,29a57,57,0,0,1,7.67-8.35Z" transform="translate(-11.72 -30.05)"></path><path class="cls-8" d="M42,120.43c30.9,0,57.48-22.93,57.48-22.93S70.2,74.58,42,74.58c-16.7,0-30.24,10.26-30.24,22.92S25.26,120.43,42,120.43Z" transform="translate(-11.72 -30.05)"></path><path class="cls-9" d="M99.48,97.53S65.88,101.11,34,75.42c0,0,3.13-1.19,14-.81Z" transform="translate(-11.72 -30.05)"></path><path class="cls-10" d="M42.62,73.1C64.47,95,99.48,97.53,99.48,97.53S95,60.65,75,40.67C63.23,28.87,46.4,26.55,37.45,35.5S30.81,61.29,42.62,73.1Z" transform="translate(-11.72 -30.05)"></path></svg>